<svg xmlns="http://www.w3.org/2000/svg" width="220" height="64" viewBox="0 0 220 64" role="img" aria-labelledby="title desc">
  <title id="title">Langit</title>
  <desc id="desc">Langit brand logo for PT Global Teknindo.</desc>
  <rect width="64" height="64" rx="14" fill="#F8FAFC"/>
  <path d="M16 41 32 15l16 26h-9.5L32 30.2 25.5 41H16Z" fill="#58AFFF"/>
  <path d="M32 15v16.2L48 41h-9.5L32 30.2V15Z" fill="#38BDF8"/>
  <path d="M76 21h7.5v21h13v6H76V21Zm27.4 7.6c2-1.5 4.4-2.2 7.3-2.2 3 0 5.2.7 6.7 2.1 1.5 1.4 2.3 3.4 2.3 6V48h-6.4v-2.5c-1.2 1.9-3.2 2.9-6.1 2.9-2.2 0-4-.6-5.3-1.8-1.3-1.2-2-2.8-2-4.8s.8-3.6 2.3-4.7c1.5-1.1 3.9-1.7 7.1-1.7h3.8v-.3c0-2-1.3-3.1-3.8-3.1-1.8 0-3.5.6-5.3 1.7l-2.6-5.1Zm8.1 15c1-.6 1.6-1.5 1.8-2.7v-1.4h-3.1c-2.5 0-3.7.8-3.7 2.4 0 .8.3 1.4.9 1.8.6.5 1.4.7 2.4.7.6 0 1.2-.1 1.7-.4Zm28-17.2c2.6 0 4.7.8 6.3 2.3 1.6 1.6 2.4 3.9 2.4 7V48h-7.1V36.9c0-2.9-1.2-4.3-3.5-4.3-1.3 0-2.4.4-3.2 1.3-.8.9-1.2 2.2-1.2 4V48H126V26.8h6.8v2.3c.8-.9 1.8-1.6 3-2 .9-.5 2.2-.7 3.7-.7Zm27.9 0c3.3 0 6 1 8 3.1s3 4.7 3 7.9c0 .5 0 1.1-.1 1.8H163c.3 1.2 1 2.2 2 2.9 1 .7 2.3 1.1 3.9 1.1 1.9 0 3.5-.6 4.8-1.8l3.8 4c-2 2.3-5 3.4-8.8 3.4-2.6 0-4.9-.5-6.8-1.4-1.9-1-3.4-2.3-4.5-4.1-1.1-1.7-1.6-3.7-1.6-5.9s.5-4.2 1.6-5.9c1-1.7 2.4-3.1 4.2-4.1 1.7-1.1 3.7-1.6 5.8-1.6Zm0 5.1c-1.3 0-2.4.4-3.2 1.1-.9.7-1.4 1.8-1.6 3h9.2c-.2-1.2-.7-2.2-1.6-3-.8-.7-1.8-1.1-2.8-1.1Zm18.5-11.9h7.1V48h-7.1V19.6Z" fill="#FFFFFF"/>
</svg>
