<svg xmlns="http://www.w3.org/2000/svg" width="48" height="48" viewBox="0 0 48 48" fill="none" aria-hidden="true">
  <path d="M24 43c8 0 14-5.4 14-13.2 0-5.8-3.4-10.2-8.6-15.3-.2 4-2.2 6.3-4.9 7.8.7-6.1-1.9-11.7-7.1-17.3.1 7-7.4 12.1-7.4 24.1C10 37.1 16 43 24 43Z" stroke="#0F172A" stroke-width="3" stroke-linejoin="round"/>
  <path d="M24 36c3.1 0 5.4-2.1 5.4-5 0-2.1-1.2-3.8-3.2-5.7-.1 1.5-.9 2.4-1.9 3-.1-2.3-1-4.4-2.9-6.5 0 2.8-2.9 4.7-2.9 9.1 0 2.9 2.3 5.1 5.5 5.1Z" stroke="#58AFFF" stroke-width="3" stroke-linejoin="round"/>
</svg>
